<svg width="99" height="19" viewBox="0 0 99 19" fill="none" xmlns="http://www.w3.org/2000/svg">
<path d="M0.68 1.2H5.432V14.232H13.448V18H0.68V1.2ZM28.4564 14.328V18H14.9684V1.2H28.1444V4.872H19.6724V7.704H27.1364V11.256H19.6724V14.328H28.4564ZM41.966 9.24H46.166V16.2C45.206 16.888 44.102 17.416 42.854 17.784C41.606 18.152 40.358 18.336 39.11 18.336C37.35 18.336 35.766 17.968 34.358 17.232C32.95 16.48 31.846 15.44 31.046 14.112C30.246 12.784 29.846 11.28 29.846 9.6C29.846 7.92 30.246 6.416 31.046 5.088C31.846 3.76 32.958 2.728 34.382 1.992C35.806 1.24 37.414 0.863999 39.206 0.863999C40.774 0.863999 42.182 1.128 43.43 1.656C44.678 2.184 45.718 2.944 46.55 3.936L43.526 6.672C42.39 5.424 41.03 4.8 39.446 4.8C38.006 4.8 36.846 5.24 35.966 6.12C35.086 6.984 34.646 8.144 34.646 9.6C34.646 10.528 34.846 11.36 35.246 12.096C35.646 12.816 36.206 13.384 36.926 13.8C37.646 14.2 38.47 14.4 39.398 14.4C40.31 14.4 41.166 14.216 41.966 13.848V9.24ZM60.0747 14.736H52.9707L51.6507 18H46.8027L54.2187 1.2H58.8987L66.3387 18H61.3947L60.0747 14.736ZM58.6827 11.232L56.5227 5.856L54.3627 11.232H58.6827ZM70.0582 4.968H64.8982V1.2H79.9462V4.968H74.8102V18H70.0582V4.968ZM89.5942 18.336C87.8182 18.336 86.2182 17.96 84.7942 17.208C83.3862 16.456 82.2742 15.416 81.4582 14.088C80.6582 12.76 80.2582 11.264 80.2582 9.6C80.2582 7.936 80.6582 6.44 81.4582 5.112C82.2742 3.784 83.3862 2.744 84.7942 1.992C86.2182 1.24 87.8182 0.863999 89.5942 0.863999C91.3702 0.863999 92.9622 1.24 94.3702 1.992C95.7942 2.744 96.9062 3.784 97.7062 5.112C98.5222 6.44 98.9302 7.936 98.9302 9.6C98.9302 11.264 98.5222 12.76 97.7062 14.088C96.9062 15.416 95.7942 16.456 94.3702 17.208C92.9622 17.96 91.3702 18.336 89.5942 18.336ZM89.5942 14.4C90.4422 14.4 91.2102 14.2 91.8982 13.8C92.5862 13.4 93.1302 12.84 93.5302 12.12C93.9302 11.384 94.1302 10.544 94.1302 9.6C94.1302 8.656 93.9302 7.824 93.5302 7.104C93.1302 6.368 92.5862 5.8 91.8982 5.4C91.2102 5 90.4422 4.8 89.5942 4.8C88.7462 4.8 87.9782 5 87.2902 5.4C86.6022 5.8 86.0582 6.368 85.6582 7.104C85.2582 7.824 85.0582 8.656 85.0582 9.6C85.0582 10.544 85.2582 11.384 85.6582 12.12C86.0582 12.84 86.6022 13.4 87.2902 13.8C87.9782 14.2 88.7462 14.4 89.5942 14.4Z" fill="white"/>
</svg>
